<?xml version="1.0" standalone="no"?><!DOCTYPE svg PUBLIC "-//W3C//DTD SVG 1.1//EN"
        "http://www.w3.org/Graphics/SVG/1.1/DTD/svg11.dtd">
<svg t="1594810232201" class="icon" viewBox="0 0 1024 1024" version="1.1" xmlns="http://www.w3.org/2000/svg" p-id="2979"
     width="128" height="128">
    <path d="M830.685405 0h-636.54054C87.593514 0 0.415135 87.178378 0.415135 193.72973v636.54054c0 106.551351 87.178378 193.72973 193.72973 193.72973h636.54054c106.551351 0 193.72973-87.178378 193.72973-193.72973V193.72973c0-106.551351-87.178378-193.72973-193.72973-193.72973zM691.891892 838.572973c0 30.443243-24.908108 55.351351-55.351351 55.351351H204.8c-30.443243 0-55.351351-24.908108-55.351351-55.351351V347.32973c0-30.443243 24.908108-55.351351 55.351351-55.351352h431.740541c30.443243 0 55.351351 24.908108 55.351351 55.351352v491.243243z m125.647567-30.443243c0 15.221622-12.454054 27.675676-27.675675 27.675675s-27.675676-12.454054-27.675676-27.675675V285.059459c0-22.832432-18.681081-41.513514-41.513513-41.513513h-485.708109c-15.221622 0-27.675676-12.454054-27.675675-27.675676s12.454054-27.675676 27.675675-27.675675h485.708109c53.414054 0 96.864865 43.450811 96.864864 96.864864v523.070271z"
          p-id="2980"></path>
    <path d="M434.508108 395.762162h-45.664865l-128.691892 370.854054h53.967568l30.996757-95.481081h144.19027l30.996757 95.481081h53.967567l-128.691892-370.854054h-11.07027z m-75.001081 231.091892l57.703784-177.816216L474.914595 626.854054h-115.407568z"
          p-id="2981"></path>
</svg>
