<?xml version="1.0" standalone="no"?><!DOCTYPE svg PUBLIC "-//W3C//DTD SVG 1.1//EN"
        "http://www.w3.org/Graphics/SVG/1.1/DTD/svg11.dtd">
<svg t="1594627397235" class="icon" viewBox="0 0 1945 1024" version="1.1" xmlns="http://www.w3.org/2000/svg" p-id="5305"
     width="128" height="128">
    <path d="M1945.6 512s-435.5072 512-972.8 512S0 512 0 512 435.5072 0 972.8 0s972.8 512 972.8 512z m-559.8208 0.7168c0-238.1824-192.256-431.3088-429.4144-431.3088-237.1584 0-429.4144 193.1264-429.4144 431.3088 0 238.2336 192.256 431.3088 429.4144 431.3088 237.1584 0 429.4144-193.0752 429.4144-431.3088z m-423.6288 198.656a192.4608 192.4608 0 0 1-192-192.8192c0-106.496 85.9648-192.8704 192-192.8704a192.4096 192.4096 0 0 1 192 192.8704 192.4096 192.4096 0 0 1-192 192.8192z"
          p-id="5306"></path>
</svg>
