<?xml version="1.0" standalone="no"?><!DOCTYPE svg PUBLIC "-//W3C//DTD SVG 1.1//EN"
        "http://www.w3.org/Graphics/SVG/1.1/DTD/svg11.dtd">
<svg t="1594626715152" class="icon" viewBox="0 0 1024 1024" version="1.1" xmlns="http://www.w3.org/2000/svg" p-id="1972"
     width="64" height="64">
    <path d="M 652.3 562.7 C 741.6 513.3 802 418.2 802 309 c 0 -160.2 -129.8 -290 -290 -290 S 222 148.8 222 309 c 0 109.2 60.4 204.3 149.7 253.7 C 184 622.2 48 797.7 48 1005 h 58 c 0 -224.2 181.8 -406 406 -406 s 406 181.8 406 406 h 58 c 0 -207.3 -136 -382.8 -323.7 -442.3 Z M 280 309 c 0 -128.1 103.9 -232 232 -232 s 232 103.9 232 232 s -103.9 232 -232 232 s -232 -103.9 -232 -232 Z"
          p-id="1973"></path>
</svg>
