<?xml version="1.0" standalone="no"?><!DOCTYPE svg PUBLIC "-//W3C//DTD SVG 1.1//EN"
        "http://www.w3.org/Graphics/SVG/1.1/DTD/svg11.dtd">
<svg t="1594833051710" class="icon" viewBox="0 0 1024 1024" version="1.1" xmlns="http://www.w3.org/2000/svg" p-id="1829"
     width="128" height="128">
    <path d="M939.842901 675.865075a248.249581 248.249581 0 0 0-52.780992-79.171488 233.488795 233.488795 0 0 0-77.829598-53.675585 240.64554 240.64554 0 0 0-190.548327 0 248.696878 248.696878 0 0 0-130.163294 134.188963 255.853622 255.853622 0 0 0 0 194.573996 246.907691 246.907691 0 0 0 52.333696 79.171488 237.961761 237.961761 0 0 0 77.829598 53.675585 242.434726 242.434726 0 0 0 268.377925-53.675585 254.511733 254.511733 0 0 0 52.333696-79.171488 255.853622 255.853622 0 0 0 0-194.573996m-225.884754 288.953566a191.890217 191.890217 0 1 1 188.311844-191.890216 190.10103 190.10103 0 0 1-188.311844 191.890216"
          p-id="1830"></path>
    <path d="M751.08376 268.377925H233.114364A31.758055 31.758055 0 0 1 198.672531 236.172574a31.758055 31.758055 0 0 1 33.54724-33.54724h518.863989a31.758055 31.758055 0 0 1 33.994538 33.54724 31.758055 31.758055 0 0 1-33.994538 33.994538z m-158.342976 202.625334h-357.837233a33.994537 33.994537 0 0 1 0-67.541778h357.837233a33.994537 33.994537 0 1 1 0 67.541778zM345.385797 675.417779H233.114364a33.994537 33.994537 0 0 1 0-67.541778h112.271433a33.994537 33.994537 0 1 1 0 67.541778z"
          p-id="1831"></path>
    <path d="M840.990365 0H165.572587A103.772798 103.772798 0 0 0 64.483568 101.089019v810.054038a104.220094 104.220094 0 0 0 101.089019 101.536315h195.021292a33.994537 33.994537 0 0 0 33.547241-33.994537 33.547241 33.547241 0 0 0-33.547241-33.547241H166.019883a31.758055 31.758055 0 0 1-33.994537-33.994537V101.089019a33.994537 33.994537 0 0 1 10.28782-25.048607 33.994537 33.994537 0 0 1 23.706717-8.498634h674.970482a34.88913 34.88913 0 0 1 23.706717 8.498634 33.994537 33.994537 0 0 1 10.287821 25.048607v352.469675a33.994537 33.994537 0 0 0 67.541778 0V101.089019A104.220094 104.220094 0 0 0 840.990365 0z"
          p-id="1832"></path>
    <path d="M624.959033 646.687436m19.293472 19.293472l166.682942 166.682942q19.293472 19.293472 0 38.586943l0 0q-19.293472 19.293472-38.586943 0l-166.682942-166.682942q-19.293472-19.293472 0-38.586943l0 0q19.293472-19.293472 38.586943 0Z"
          p-id="1833"></path>
    <path d="M830.353186 685.268953m-19.293472 19.293471l-166.682942 166.682943q-19.293472 19.293472-38.586943 0l0 0q-19.293472-19.293472 0-38.586943l166.682942-166.682943q19.293472-19.293472 38.586943 0l0 0q19.293472 19.293472 0 38.586943Z"
          p-id="1834"></path>
</svg>
