<?xml version="1.0" standalone="no"?><!DOCTYPE svg PUBLIC "-//W3C//DTD SVG 1.1//EN"
        "http://www.w3.org/Graphics/SVG/1.1/DTD/svg11.dtd">
<svg t="1594627326750" class="icon" viewBox="0 0 2048 1024" version="1.1" xmlns="http://www.w3.org/2000/svg" p-id="5134"
     width="128" height="128">
    <path d="M2033.536 117.888a78.72 78.72 0 0 0-14.592-102.4c-32.896-25.6-76.8-18.176-102.4 14.72-3.584 3.584-409.856 482.944-892.8 482.944-468.352 0-892.8-482.944-896.384-486.656a74.24 74.24 0 0 0-102.4-7.296 74.24 74.24 0 0 0-7.296 102.4c7.296 11.008 94.976 109.696 233.984 219.392L62.208 532.096c-29.312 29.312-25.6 76.8 3.584 102.4 7.296 14.592 25.6 22.016 43.904 22.016a72.192 72.192 0 0 0 51.2-22.016L365.056 428.8c95.104 65.792 208.384 128 333.056 171.904l-79.872 259.84a73.088 73.088 0 0 0 51.2 91.392h22.016a70.4 70.4 0 0 0 69.504-54.784l79.744-259.84c58.496 10.88 120.704 18.176 182.784 18.176 62.208 0 124.416-7.296 182.912-18.176l80.256 256.384a73.6 73.6 0 0 0 69.504 54.912c7.296 0 14.592 0 18.304-3.712a73.088 73.088 0 0 0 51.2-91.392l-79.872-256.256a1431.552 1431.552 0 0 0 333.056-171.904l200.448 202.112a72.192 72.192 0 0 0 51.2 21.888 72.192 72.192 0 0 0 51.2-21.888 74.112 74.112 0 0 0 3.712-102.4l-189.44-191.104c149.76-109.952 237.568-216.064 237.568-216.064z"
          p-id="5135"></path>
</svg>
